<?xml version="1.0" encoding="iso-8859-1"?>
<svg xmlns="http://www.w3.org/2000/svg" version="1.1" id="Layer_1" x="0px" y="0px" width="30x" height="30px"
     viewBox="0 0 512 512" style="enable-background:new 0 0 512 512;" xml:space="preserve">
<path style="fill:#7495FF;" d="M256,8.017c-94.454,0-171.023,76.569-171.023,171.023C84.977,367.165,256,503.983,256,503.983  S427.023,367.165,427.023,179.04C427.023,84.586,350.454,8.017,256,8.017z M256,264.551c-47.227,0-85.511-38.285-85.511-85.511  S208.773,93.528,256,93.528s85.511,38.285,85.511,85.511S303.227,264.551,256,264.551z"/>
<path style="fill:#D23C69;" d="M375.048,166.22c-5.631-54.198-48.784-98.559-102.79-105.804  c-20.791-2.789-40.629-0.123-58.454,6.659c-7.239,2.755-14.197-4.581-10.903-11.59C216.702,26.117,235.38,8.017,256,8.017  c-94.454,0-171.023,76.569-171.023,171.023C84.977,367.165,256,503.983,256,503.983s-46.949-83.53-67.498-209.765  c-1.135-6.97,6.081-12.293,12.338-9.019c16.502,8.635,35.24,13.557,55.159,13.557C326.343,298.756,382.515,238.087,375.048,166.22z   M256,264.551c-47.227,0-85.511-38.285-85.511-85.511S208.773,93.528,256,93.528s85.511,38.285,85.511,85.511  S303.227,264.551,256,264.551z"/>
<path d="M256,0C157.277,0,76.96,80.317,76.96,179.04c0,43.955,9.19,88.759,27.317,133.167  c14.438,35.373,34.548,70.573,59.769,104.623c42.883,57.892,85.166,91.99,86.946,93.413c1.464,1.172,3.236,1.757,5.008,1.757  c1.772,0,3.543-0.586,5.008-1.757c1.78-1.423,44.063-35.52,86.946-93.413c25.222-34.05,45.332-69.25,59.769-104.623  c18.126-44.408,27.317-89.212,27.317-133.167C435.04,80.317,354.723,0,256,0z M392.976,305.911  c-13.89,34.092-33.284,68.082-57.647,101.025c-33.257,44.972-66.901,75.79-79.329,86.559c-12.429-10.77-46.074-41.587-79.329-86.559  c-24.362-32.943-43.756-66.933-57.647-101.025c-17.272-42.398-26.031-85.083-26.031-126.871  c0-89.882,73.124-163.006,163.006-163.006S419.006,89.157,419.006,179.04C419.006,220.828,410.248,263.513,392.976,305.911z"/>
<path d="M144.553,171.509c1.81-26.952,13.339-52.328,32.463-71.452c19.125-19.126,44.5-30.654,71.452-32.463  c26.702-1.789,53.133,6.01,74.422,21.972c3.542,2.656,8.567,1.937,11.223-1.605c2.655-3.542,1.937-8.567-1.605-11.223  c-24.357-18.262-54.581-27.188-85.113-25.141c-30.825,2.069-59.845,15.254-81.716,37.124s-35.054,50.89-37.124,81.716  c-2.049,30.528,6.879,60.755,25.141,85.114c1.576,2.1,3.983,3.208,6.421,3.208c1.673,0,3.361-0.522,4.803-1.603  c3.542-2.656,4.261-7.681,1.605-11.223C150.563,224.641,142.76,198.21,144.553,171.509z"/>
<path d="M347.079,100.925c-3.542,2.656-4.261,7.681-1.605,11.223c15.962,21.29,23.765,47.721,21.972,74.422  c-1.81,26.952-13.339,52.328-32.463,71.452c-19.125,19.126-44.5,30.654-71.452,32.463c-26.7,1.793-53.132-6.01-74.422-21.972  c-3.543-2.655-8.567-1.937-11.223,1.605c-2.655,3.542-1.937,8.567,1.605,11.223c22.069,16.545,48.955,25.43,76.518,25.43  c2.859,0,5.727-0.096,8.596-0.289c30.825-2.069,59.845-15.254,81.716-37.124s35.054-50.89,37.124-81.716  c2.049-30.528-6.879-60.755-25.141-85.114C355.648,98.988,350.623,98.269,347.079,100.925z"/>
<path d="M256,85.511c-51.572,0-93.528,41.956-93.528,93.528s41.956,93.528,93.528,93.528s93.528-41.956,93.528-93.528  S307.572,85.511,256,85.511z M256,256.534c-42.731,0-77.495-34.764-77.495-77.495s34.764-77.495,77.495-77.495  s77.495,34.764,77.495,77.495S298.731,256.534,256,256.534z"/>
<g>
</g>
<g>
</g>
<g>
</g>
<g>
</g>
<g>
</g>
<g>
</g>
<g>
</g>
<g>
</g>
<g>
</g>
<g>
</g>
<g>
</g>
<g>
</g>
<g>
</g>
<g>
</g>
<g>
</g>
</svg>
