<svg width="20" height="19" viewBox="0 0 20 19" fill="none" xmlns="http://www.w3.org/2000/svg">
<path d="M17.52 9.14C17.9 12.88 17.2 16.86 14.8 17.34C14.54 17.4 14.32 17.42 14.1 17.42C13.46 17.42 12.98 17.22 12.6
16.78C11.58 15.64 11.6 13.18 11.9 11.32C12.1 10.04 12.32 8.96 12.32 8.96C12.34 8.8 12.24 8.66 12.08 8.62C11.94 8.6
11.78 8.7 11.76 8.84C11.74 8.88 11.56 9.9 11.32 11.22C10.78 14.04 10.02 15.12 9.6 15.16C9.42 15.18 8.66 14.96 7.22
12.18C6.74 11.26 6.42 10.54 6.4 10.52C6.32 10.38 6.14 10.34 6 10.4C5.88 10.48 5.82 10.64 5.88 10.78C5.88 10.82 6.28
11.52 6.7 12.44C7.56 14.28 7.74 15.74 7.38 16.56C7.22 16.9 6.96 17.12 6.58 17.26C5.72 17.56 4.6 16.96 3.58 15.68C1.82
 13.46 0.36 9.16 1.32 4.94C1.76 2.98 2.7 1.94 4 1.94C6.2 1.94 9.06 4.98 9.16 8.38C9.16 8.54 9.26 8.68 9.46 8.68C9.46
 8.68 9.74 8.7 9.74 8.38C9.74 8.32 9.84 1.46 13.66 1.32C13.66 1.32 13.68 1.32 13.7 1.32C15.6 1.32 17.14 5.3 17.52
 9.14ZM28.548 4.44C29.108 7.08 27.908 12.46 25.508" fill="#FAFAFA"/>
</svg>
