<svg width="87" height="19" viewBox="0 0 87 19" fill="none" xmlns="http://www.w3.org/2000/svg">
<path d="M17.52 9.14C17.9 12.88 17.2 16.86 14.8 17.34C14.54 17.4 14.32 17.42 14.1 17.42C13.46 17.42 12.98 17.22 12.6 16.78C11.58 15.64 11.6 13.18 11.9 11.32C12.1 10.04 12.32 8.96 12.32 8.96C12.34 8.8 12.24 8.66 12.08 8.62C11.94 8.6 11.78 8.7 11.76 8.84C11.74 8.88 11.56 9.9 11.32 11.22C10.78 14.04 10.02 15.12 9.6 15.16C9.42 15.18 8.66 14.96 7.22 12.18C6.74 11.26 6.42 10.54 6.4 10.52C6.32 10.38 6.14 10.34 6 10.4C5.88 10.48 5.82 10.64 5.88 10.78C5.88 10.82 6.28 11.52 6.7 12.44C7.56 14.28 7.74 15.74 7.38 16.56C7.22 16.9 6.96 17.12 6.58 17.26C5.72 17.56 4.6 16.96 3.58 15.68C1.82 13.46 0.36 9.16 1.32 4.94C1.76 2.98 2.7 1.94 4 1.94C6.2 1.94 9.06 4.98 9.16 8.38C9.16 8.54 9.26 8.68 9.46 8.68C9.46 8.68 9.74 8.7 9.74 8.38C9.74 8.32 9.84 1.46 13.66 1.32C13.66 1.32 13.68 1.32 13.7 1.32C15.6 1.32 17.14 5.3 17.52 9.14ZM28.548 4.44C29.108 7.08 27.908 12.46 25.508 15.44C24.448 16.76 23.328 17.42 22.148 17.42C21.488 17.42 20.828 17.2 20.168 16.8C17.868 15.38 17.968 12.68 18.468 10.68C19.508 6.42 23.188 1.74 25.648 1.56C25.648 1.56 25.668 1.56 25.728 1.56C26.228 1.56 27.948 1.76 28.548 4.44ZM23.768 11.72L24.148 8.42C24.168 8.26 24.048 8.1 23.888 8.08C23.728 8.06 23.588 8.18 23.568 8.34L23.188 11.66C23.168 11.82 23.268 11.96 23.428 11.98C23.448 11.98 23.468 11.98 23.468 11.98C23.608 11.98 23.748 11.88 23.768 11.72ZM39.8353 9.82C39.6353 10.12 39.4153 10.38 39.1553 10.58C38.5353 11.14 37.7953 11.36 36.9553 11.22C36.3353 11.1 35.8753 10.8 35.5353 10.3C35.3753 10.06 35.2553 9.8 35.1753 9.5C37.0953 9.06 38.7353 9.16 39.8353 9.82ZM41.1953 4.7C41.2553 5.94 40.9353 7.88 40.1353 9.32C38.8953 8.56 37.1153 8.44 35.0353 8.94C34.7353 7.22 35.2353 5.18 35.2553 5.14C35.2953 5 35.1953 4.84 35.0353 4.8C34.8953 4.76 34.7353 4.84 34.6953 5L33.2953 9.48C33.1753 9.52 33.0353 9.58 32.9153 9.62C31.4353 10.22 30.5953 11.26 30.6153 12.5C30.6353 13.56 31.3353 14.54 32.3753 14.92C33.0353 15.16 34.8153 15.48 36.8353 13.16C36.9553 13.04 36.9353 12.86 36.8153 12.74C36.6953 12.64 36.5153 12.66 36.3953 12.78C35.1353 14.22 33.7353 14.8 32.5753 14.36C31.7753 14.08 31.2153 13.32 31.2153 12.48C31.1953 11.52 31.8953 10.66 33.1353 10.16C33.6353 9.96 34.1353 9.8 34.6153 9.66C34.7153 10 34.8553 10.32 35.0353 10.62C35.4753 11.26 36.0753 11.66 36.8553 11.8C37.8753 11.96 38.7753 11.7 39.5553 11.02C39.8353 10.78 40.0753 10.5 40.2953 10.18C40.3153 10.18 40.3353 10.2 40.3353 10.22C41.2153 11.04 41.4753 12.3 41.0153 13.7C40.4553 15.4 38.1953 16.88 35.4753 17.3C33.0153 17.7 30.9353 17.06 29.8953 15.62C28.7153 13.98 28.4153 11.8 29.0353 9.52C29.6553 7.26 31.1153 5.04 33.1553 3.26C34.4353 2.14 35.8153 1.56 37.1553 1.56C37.7553 1.56 38.3553 1.68 38.9353 1.94C40.2153 2.48 41.1553 3.62 41.1953 4.7ZM48.845 1.72C49.205 2.5 49.245 3.42 48.985 4.32C48.865 4.76 48.665 5.16 48.405 5.5C47.685 4.24 46.645 3.54 45.365 3.54C44.905 3.54 44.385 3.64 43.865 3.82C43.645 3.9 43.425 4 43.225 4.12C43.185 3.64 43.245 3.14 43.385 2.66C43.825 1.14 45.085 0.0799994 46.445 0.0799994C46.685 0.0799994 46.925 0.119999 47.165 0.199999C47.905 0.419999 48.505 0.959999 48.845 1.72ZM48.005 5.98C47.425 6.54 46.685 6.88 45.925 6.88C45.685 6.88 45.445 6.84 45.205 6.78C44.285 6.5 43.605 5.72 43.345 4.74C43.565 4.58 43.785 4.46 44.045 4.36C44.525 4.2 44.965 4.12 45.365 4.12C46.645 4.12 47.465 4.94 48.005 5.98ZM48.925 9.98C49.165 14.32 47.685 18.76 45.925 18.94C45.865 18.94 45.825 18.96 45.765 18.96C44.185 18.96 42.505 16.14 41.885 12.42C41.425 9.68 41.605 6.7 42.885 5.2C43.245 6.22 44.005 7.02 45.045 7.34C45.325 7.42 45.625 7.46 45.925 7.46C46.785 7.46 47.585 7.12 48.245 6.54C48.765 7.84 48.885 9.3 48.925 9.98ZM61.1189 10.52C61.7789 11.22 62.1589 12.38 62.1389 13.68C62.0789 15.92 60.2189 17.42 57.4989 17.42C56.0789 17.42 54.5789 17 53.1989 16.18C50.3789 14.54 48.9389 8.9 49.5389 4.94C49.7389 3.6 50.3789 1.3 52.3389 0.839999C52.8189 0.739999 53.2789 0.679999 53.6989 0.679999C54.7789 0.679999 55.5789 1.04 56.1389 1.8C58.2989 4.7 56.1389 12.08 56.1189 12.16C56.0789 12.3 56.1589 12.46 56.2789 12.52C56.4189 12.58 56.5789 12.52 56.6589 12.4C57.6389 10.8 58.7389 9.92 59.7589 9.92C60.2589 9.92 60.7189 10.12 61.1189 10.52ZM78.1997 10.98C78.6997 11.54 78.6597 12.66 78.0997 13.92C77.1997 15.94 75.0397 18.1 72.3997 18.1H72.3397C69.2597 18.06 68.7197 14.64 68.6797 12.58C68.6997 12.04 68.6997 11.66 68.6997 11.66C68.6797 11.5 68.5597 11.38 68.3997 11.38C68.2397 11.38 68.1197 11.48 68.0997 11.64C68.0997 11.66 68.0797 12.02 68.0797 12.58C67.9997 14.04 67.5597 17.38 65.1997 17.38C65.0797 17.38 64.9597 17.38 64.8397 17.36C62.6397 17.08 62.6197 13.72 62.6997 12.28C62.9997 7.7 65.5197 1.8 67.7997 1.8C67.8997 1.8 67.9997 1.8 68.0997 1.82C68.8797 2 69.4197 2.4 69.7197 3.02C70.7397 5.1 68.9397 8.96 68.9197 9C68.8397 9.16 68.8997 9.32 69.0397 9.4C69.1797 9.46 69.3597 9.42 69.4397 9.28C70.5197 7.32 73.8397 2.26 75.9797 2.26C76.4597 2.26 76.8597 2.54 77.1997 3.1C77.5797 3.72 77.6397 4.32 77.4397 4.94C76.7397 7.02 73.2397 8.78 71.1597 9.56L69.6197 10.14C69.4797 10.22 69.4397 10.38 69.4997 10.52C69.5597 10.66 69.6997 10.72 69.8597 10.68L71.3397 10.12C72.1997 9.84 73.2197 9.78 74.1797 9.78C76.0597 9.78 77.5197 10.22 78.1997 10.98ZM86.2669 1.72C86.6269 2.5 86.6669 3.42 86.4069 4.32C86.2869 4.76 86.0869 5.16 85.8269 5.5C85.1069 4.24 84.0669 3.54 82.7869 3.54C82.3269 3.54 81.8069 3.64 81.2869 3.82C81.0669 3.9 80.8469 4 80.6469 4.12C80.6069 3.64 80.6669 3.14 80.8069 2.66C81.2469 1.14 82.5069 0.0799994 83.8669 0.0799994C84.1069 0.0799994 84.3469 0.119999 84.5869 0.199999C85.3269 0.419999 85.9269 0.959999 86.2669 1.72ZM85.4269 5.98C84.8469 6.54 84.1069 6.88 83.3469 6.88C83.1069 6.88 82.8669 6.84 82.6269 6.78C81.7069 6.5 81.0269 5.72 80.7669 4.74C80.9869 4.58 81.2069 4.46 81.4669 4.36C81.9469 4.2 82.3869 4.12 82.7869 4.12C84.0669 4.12 84.8869 4.94 85.4269 5.98ZM86.3469 9.98C86.5869 14.32 85.1069 18.76 83.3469 18.94C83.2869 18.94 83.2469 18.96 83.1869 18.96C81.6069 18.96 79.9269 16.14 79.3069 12.42C78.8469 9.68 79.0269 6.7 80.3069 5.2C80.6669 6.22 81.4269 7.02 82.4669 7.34C82.7469 7.42 83.0469 7.46 83.3469 7.46C84.2069 7.46 85.0069 7.12 85.6669 6.54C86.1869 7.84 86.3069 9.3 86.3469 9.98Z" fill="#FAFAFA"/>
</svg>
